# xmcd CD database file
#
# Track frame offsets:
#	150
#	14047
#	30175
#	45930
#	57274
#	70730
#	85868
#	119213
#	134387
#	158591
#	171142
#	185443
#	199737
#	212550
#	234582
#	248790
#	266853
#	286603
#	300498
#	313705
#	328689
#
# Disc length: 4687 seconds
#
# Revision: 6
# Processed by: cddbd v1.5.2PL0 Copyright (c) Steve Scherf et al.
# Submitted via: CDex 1.51
#
DISCID=23124d15
DTITLE=Various Artist - City Jazz - Vol. 10-10  { 1941-1943 }
DYEAR=2002
DGENRE=Jazz
TTITLE0=Duke Ellington - Are You Sticking  [1941]
TTITLE1=Duke Ellington - The Giddybug Gallop  [1941]
TTITLE2=Mildred Bailey -  All Too Soon  [1941]
TTITLE3=Albert Ammons and Pete Johnson - Foot Pedal Boogie  [1941]
TTITLE4=Duke Ellington - Clementine  [1941]
TTITLE5=Duke Ellington - Menelik The Lion Of Judas  [1941]
TTITLE6=Rostaing, Viseur, Combelle, Barelli, Warlop, Reinhardt - Festival Swing 1942  [1941]
TTITLE7=Count Basie - Harvard Blues  [1941]
TTITLE8=Jimmy Lunceford - Blues In The Night  [1941]
TTITLE9=John Kirby - Saint Louis Blues  [1942]
TTITLE10=Earl Hines - Stormy Monday Blues  [1942]
TTITLE11=Lionel Hampton - Flying Home  [1942]
TTITLE12=Duke Ellington - Main Stem  [1942]
TTITLE13=Lester Young - Indiana  [1942]
TTITLE14=Count Basie - It's Sand Man  [1942]
TTITLE15=Fats Waller - Ain't Misbehavin'  [1943]
TTITLE16=Fats Waller - Moppin' And Boppin'  [1943]
TTITLE17=Django Reinhardt - Blues Clair  [1943]
TTITLE18=Roy Elridge - The Gasser  [1943]
TTITLE19=Coleman Hawkins - Stumpy  [1943]
TTITLE20=Coleman Hawkins - The Man I Love  [1943]
EXTD=YEAR: 2002
EXTT0=
EXTT1=
EXTT2=
EXTT3=
EXTT4=
EXTT5=
EXTT6=
EXTT7=
EXTT8=
EXTT9=
EXTT10=
EXTT11=
EXTT12=
EXTT13=
EXTT14=
EXTT15=
EXTT16=
EXTT17=
EXTT18=
EXTT19=
EXTT20=
PLAYORDER=
